# xmcd CD database file
# Copyright (C) 1993-1996 Ti Kan
#
# Track frame offsets:
# 182
# 14825
# 33122
# 47310
# 63637
# 78115
# 90747
# 104872
# 121190
# 138765
#
# Disc length: 2021 seconds
#
# Revision: 0
# Processed by: cddbd v1.4b41PL1 Copyright (c) Steve Scherf et al.
# Submitted via: inCDius 1.1b5
#
DISCID=7b07e30a
DTITLE=Tom Jones - Tom Jones Country
DYEAR=1900
DGENRE=
TTITLE0=I Don't Want To Be Alone Tonight
TTITLE1=A Woman's Touch
TTITLE2=If I Ever Had To Say Goodbye To You
TTITLE3=We're Wasting Our Time
TTITLE4=Somebody's Cryin'
TTITLE5=Marie
TTITLE6=My Last Goodbye
TTITLE7=Touch Me (Then I'll Be Your Fool Once More)
TTITLE8=We Could Be The Closest Of Friends
TTITLE9=It'll Be Me
EXTD=
EXTT0=
EXTT1=
EXTT2=
EXTT3=
EXTT4=
EXTT5=
EXTT6=
EXTT7=
EXTT8=
EXTT9=
PLAYORDER=
